<svg width="72" height="72" viewBox="0 0 72 72" fill="none" xmlns="http://www.w3.org/2000/svg">
  <rect width="72" height="72" rx="18" fill="url(#gradient)"/>
  <path d="M36 12C20.536 12 8 24.536 8 40s12.536 28 28 28 28-12.536 28-28S51.464 12 36 12zm0 52c-13.255 0-24-10.745-24-24S22.745 16 36 16s24 10.745 24 24-10.745 24-24 24z" fill="white"/>
  <path d="M36 18c-12.15 0-22 9.85-22 22s9.85 22 22 22 22-9.85 22-22-9.85-22-22-22zm0 40c-9.941 0-18-8.059-18-18s8.059-18 18-18 18 8.059 18 18-8.059 18-18 18z" fill="white"/>
  <circle cx="36" cy="36" r="6" fill="white"/>
  <defs>
    <linearGradient id="gradient" x1="0" y1="0" x2="72" y2="72" gradientUnits="userSpaceOnUse">
      <stop stop-color="#ec4899"/>
      <stop offset="1" stop-color="#be185d"/>
    </linearGradient>
  </defs>
</svg>

