<svg width="48" height="48" viewBox="0 0 48 48" fill="none" xmlns="http://www.w3.org/2000/svg">
  <rect width="48" height="48" rx="12" fill="url(#gradient)"/>
  <path d="M24 8C15.163 8 8 15.163 8 24s7.163 16 16 16 16-7.163 16-16S32.837 8 24 8zm0 28c-6.627 0-12-5.373-12-12s5.373-12 12-12 12 5.373 12 12-5.373 12-12 12z" fill="white"/>
  <path d="M24 12c-6.627 0-12 5.373-12 12s5.373 12 12 12 12-5.373 12-12-5.373-12-12-12zm0 20c-4.418 0-8-3.582-8-8s3.582-8 8-8 8 3.582 8 8-3.582 8-8 8z" fill="white"/>
  <circle cx="24" cy="24" r="4" fill="white"/>
  <defs>
    <linearGradient id="gradient" x1="0" y1="0" x2="48" y2="48" gradientUnits="userSpaceOnUse">
      <stop stop-color="#ec4899"/>
      <stop offset="1" stop-color="#be185d"/>
    </linearGradient>
  </defs>
</svg>





