<svg width="96" height="96" viewBox="0 0 96 96" fill="none" xmlns="http://www.w3.org/2000/svg">
  <rect width="96" height="96" rx="24" fill="url(#gradient)"/>
  <path d="M48 16C26.909 16 8 34.909 8 56s18.909 40 40 40 40-18.909 40-40S69.091 16 48 16zm0 72c-17.673 0-32-14.327-32-32S30.327 24 48 24s32 14.327 32 32-14.327 32-32 32z" fill="white"/>
  <path d="M48 24c-17.673 0-32 14.327-32 32s14.327 32 32 32 32-14.327 32-32-14.327-32-32-32zm0 56c-13.255 0-24-10.745-24-24s10.745-24 24-24 24 10.745 24 24-10.745 24-24 24z" fill="white"/>
  <circle cx="48" cy="48" r="8" fill="white"/>
  <defs>
    <linearGradient id="gradient" x1="0" y1="0" x2="96" y2="96" gradientUnits="userSpaceOnUse">
      <stop stop-color="#ec4899"/>
      <stop offset="1" stop-color="#be185d"/>
    </linearGradient>
  </defs>
</svg>






